<svg width="26" height="26" viewBox="0 0 26 26" fill="none" xmlns="http://www.w3.org/2000/svg">
<g clip-path="url(#clip0_102_5387)">
<path d="M12.9996 4.90639C15.5443 2.62164 19.4768 2.69748 21.9284 5.15339C24.3789 7.61039 24.4634 11.5234 22.1841 14.0757L12.9974 23.2754L3.81292 14.0757C1.53358 11.5234 1.61917 7.60389 4.06858 5.15339C6.52233 2.70073 10.4473 2.61839 12.9996 4.90639ZM20.3944 6.68414C18.7694 5.05698 16.1478 4.9909 14.4469 6.51839L13.0007 7.81623L11.5533 6.51948C9.84708 4.98981 7.23083 5.05698 5.6015 6.68631C3.98733 8.30048 3.90608 10.8842 5.3935 12.5916L12.9985 20.2085L20.6035 12.5926C22.092 10.8842 22.0108 8.30373 20.3944 6.68414Z" fill="#F4683F"/>
</g>
<defs>
<clipPath id="clip0_102_5387">
<rect width="26" height="26" fill="white"/>
</clipPath>
</defs>
</svg>
